<?xml version="1.0" encoding="UTF-8" standalone="yes"?><svg xmlns="http://www.w3.org/2000/svg" xmlns:xlink="http://www.w3.org/1999/xlink" width="438px" height="500px" viewBox="0 0 438 500" version="1.1"><g id='iconGroup'>
<g id="surface1">
<path style=" stroke:none;fill-rule:evenodd;fill:rgb(62.745098%,87.058824%,83.137255%);fill-opacity:1;" d="M 356.515625 490.292969 C 356.515625 484.660156 306.269531 480.09375 244.289062 480.09375 C 182.308594 480.09375 132.066406 484.660156 132.066406 490.292969 C 132.066406 495.921875 182.308594 500.492188 244.289062 500.492188 C 306.269531 500.492188 356.515625 495.921875 356.515625 490.292969 Z M 356.515625 490.292969 "/>
<path style=" stroke:none;fill-rule:evenodd;fill:rgb(62.745098%,87.058824%,83.137255%);fill-opacity:1;" d="M 356.515625 490.292969 C 356.515625 484.660156 306.269531 480.09375 244.289062 480.09375 C 182.308594 480.09375 132.066406 484.660156 132.066406 490.292969 C 132.066406 495.921875 182.308594 500.492188 244.289062 500.492188 C 306.269531 500.492188 356.515625 495.921875 356.515625 490.292969 Z M 356.515625 490.292969 "/>
<path style=" stroke:none;fill-rule:nonzero;fill:rgb(24.313725%,32.941176%,41.960784%);fill-opacity:1;" d="M 361.421875 291.296875 C 363.808594 295.222656 369.191406 297.75 375.703125 299.320312 C 386.949219 302.019531 401.1875 301.714844 410.609375 300.972656 L 410.914062 300.929688 C 412.867188 300.753906 414.386719 300.667969 415.863281 300.972656 C 420.03125 301.890625 421.507812 304.285156 420.117188 310.648438 C 418.554688 317.796875 412.824219 325.988281 405.226562 331.875 C 400.105469 335.839844 394.109375 338.804688 387.902344 339.847656 C 394.503906 356.585938 396.804688 375.628906 386.90625 398.8125 C 367.195312 445.183594 324.390625 473.730469 277.199219 484.40625 C 251.105469 490.292969 223.667969 490.683594 198.097656 485.628906 C 172.394531 480.488281 148.519531 469.808594 129.636719 453.550781 C 103.367188 430.933594 86.871094 397.59375 88.738281 353.535156 C 83.050781 353.664062 77.625 353.402344 72.457031 352.878906 C 50.054688 350.4375 32.472656 341.941406 20.230469 329.214844 C 7.945312 316.445312 1.085938 299.578125 0.132812 280.488281 C -0.128906 275.523438 0.0429688 270.46875 0.609375 265.28125 C 1 261.53125 1.953125 258.523438 3.257812 256.519531 C 4.296875 254.910156 5.601562 253.820312 7.164062 253.253906 C 8.898438 252.640625 10.722656 252.730469 12.546875 253.601562 C 14.152344 254.382812 15.714844 255.824219 17.191406 257.914062 C 23.183594 266.589844 32.300781 268.332031 41.460938 270.117188 C 46.800781 271.164062 52.183594 272.164062 57.347656 274.519531 C 63.382812 277.222656 68.636719 281.011719 73.5 284.5 C 80.011719 289.207031 85.570312 293.214844 89.605469 291.996094 C 95.382812 290.253906 95.339844 282.800781 95.207031 272.996094 C 95.164062 266.632812 95.078125 259.484375 96.421875 252.03125 C 97.683594 245.015625 100.894531 237.476562 105.148438 229.9375 C 109.316406 222.617188 114.480469 215.203125 119.867188 208.320312 C 122.125 205.398438 124.511719 203.4375 126.8125 202.394531 C 129.027344 201.347656 131.238281 201.128906 133.28125 201.609375 C 135.40625 202.128906 137.1875 203.351562 138.621094 205.3125 C 139.921875 207.101562 140.878906 209.539062 141.269531 212.460938 C 142.703125 222.703125 145.828125 232.460938 148.867188 242.097656 C 157.984375 270.902344 166.753906 298.664062 135.363281 336.015625 C 139.621094 342.113281 146.609375 346.296875 154.597656 348.304688 C 161.5 350.046875 169.097656 350.132812 176.304688 348.433594 C 183.46875 346.734375 190.199219 343.292969 195.492188 337.84375 C 202.179688 331 206.605469 320.890625 206.605469 307.207031 C 206.605469 293.738281 200.875 274.695312 194.757812 254.210938 C 183.25 215.859375 170.226562 172.539062 188.589844 146 C 207.867188 118.148438 240.121094 101.238281 273.160156 83.894531 C 297.992188 70.863281 323.304688 57.570312 343.492188 39.3125 C 341.972656 35.824219 341.101562 31.988281 341.101562 27.980469 C 341.101562 12.550781 353.5625 0.0859375 368.886719 0.0859375 C 384.257812 0.0859375 396.671875 12.597656 396.671875 27.980469 C 396.671875 31.246094 396.109375 34.34375 395.109375 37.261719 C 401.058594 42.230469 406.355469 47.679688 411.042969 53.429688 C 425.890625 71.648438 434.488281 93.308594 436.875 115.839844 C 439.21875 138.285156 435.355469 161.644531 425.242188 183.347656 C 416.644531 201.78125 403.574219 218.996094 386.039062 233.425781 C 385.996094 233.46875 385.90625 233.511719 385.863281 233.597656 C 384.386719 234.773438 385.039062 234.25 382.347656 236.472656 C 376.53125 241.222656 370.839844 245.886719 365.15625 251.117188 C 353.652344 265.148438 355.257812 278.050781 361.464844 291.429688 Z M 278.285156 177.246094 C 280.886719 180.382812 282.496094 184.390625 282.496094 188.792969 C 282.496094 198.6875 274.507812 206.75 264.652344 206.75 C 254.796875 206.75 246.765625 198.730469 246.765625 188.792969 C 246.765625 179.121094 254.449219 171.1875 264 170.882812 C 263.132812 172.148438 262.652344 173.714844 262.652344 175.371094 C 262.652344 179.773438 266.214844 183.347656 270.601562 183.347656 C 274.332031 183.347656 277.460938 180.777344 278.328125 177.289062 Z M 391.375 44.191406 C 386.34375 51.207031 378.136719 55.785156 368.84375 55.785156 C 360.335938 55.785156 352.695312 51.949219 347.617188 45.890625 C 326.949219 64.28125 301.597656 77.617188 276.675781 90.691406 C 244.507812 107.558594 213.121094 124.035156 194.886719 150.355469 C 178.648438 173.800781 191.0625 215.25 202.09375 251.902344 C 208.433594 272.953125 214.289062 292.519531 214.289062 307.117188 C 214.289062 323.070312 208.996094 334.96875 200.964844 343.203125 C 194.582031 349.742188 186.503906 353.882812 178.042969 355.886719 C 169.617188 357.890625 160.761719 357.761719 152.6875 355.714844 C 141.746094 352.964844 132.242188 346.691406 127.160156 337.363281 C 126.378906 335.882812 126.59375 334.140625 127.636719 332.960938 C 158.375 297.792969 150.039062 271.554688 141.445312 244.320312 C 138.273438 234.335938 135.0625 224.183594 133.539062 213.417969 C 133.324219 211.761719 132.890625 210.542969 132.328125 209.757812 C 132.023438 209.367188 131.71875 209.105469 131.457031 209.0625 C 131.109375 208.972656 130.632812 209.0625 129.984375 209.367188 C 128.765625 209.933594 127.378906 211.152344 125.898438 213.027344 C 120.777344 219.648438 115.785156 226.710938 111.835938 233.726562 C 107.96875 240.527344 105.105469 247.238281 104.019531 253.339844 C 102.804688 260.226562 102.847656 266.9375 102.890625 272.910156 C 103.019531 285.984375 103.105469 295.960938 91.777344 299.40625 C 84.136719 301.714844 77.105469 296.660156 68.941406 290.777344 C 64.425781 287.507812 59.476562 283.976562 54.179688 281.582031 C 49.882812 279.664062 44.933594 278.703125 39.984375 277.746094 C 29.304688 275.695312 18.625 273.648438 10.851562 262.359375 C 10.375 261.707031 9.988281 261.226562 9.640625 260.921875 C 9.03125 261.96875 8.550781 263.710938 8.292969 266.109375 C 7.773438 270.902344 7.640625 275.609375 7.859375 280.140625 C 8.726562 297.355469 14.804688 312.523438 25.789062 323.898438 C 36.816406 335.316406 52.746094 342.988281 73.324219 345.210938 C 79.40625 345.863281 85.832031 346.035156 92.691406 345.6875 C 94.816406 345.601562 96.640625 347.257812 96.726562 349.394531 C 96.726562 349.523438 96.726562 349.699219 96.726562 349.828125 C 93.773438 393.324219 109.359375 425.921875 134.714844 447.757812 C 152.515625 463.140625 175.175781 473.207031 199.660156 478.089844 C 224.234375 482.972656 250.585938 482.578125 275.59375 476.957031 C 320.523438 466.800781 361.246094 439.738281 379.914062 395.894531 C 394.503906 361.59375 379.136719 336.492188 365.546875 314.3125 C 351.351562 291.125 338.886719 270.816406 359.378906 245.972656 C 359.511719 245.796875 359.683594 245.625 359.859375 245.492188 C 363.851562 241.789062 367.890625 238.390625 371.972656 234.992188 C 368.800781 234.554688 365.851562 233.640625 363.160156 232.375 C 357.558594 229.71875 353.042969 225.492188 349.917969 220.566406 C 346.792969 215.597656 345.054688 209.890625 345.011719 204.265625 C 344.96875 198.558594 346.660156 192.976562 350.4375 188.359375 C 351.785156 186.703125 354.214844 186.484375 355.863281 187.835938 C 357.511719 189.1875 357.730469 191.628906 356.386719 193.28125 C 353.824219 196.421875 352.695312 200.257812 352.738281 204.222656 C 352.78125 208.363281 354.085938 212.632812 356.472656 216.425781 C 358.859375 220.21875 362.246094 223.398438 366.457031 225.359375 C 370.753906 227.410156 375.964844 228.148438 381.828125 226.929688 C 398.191406 213.332031 410.347656 197.25 418.335938 180.078125 C 427.847656 159.683594 431.492188 137.761719 429.277344 116.621094 C 427.0625 95.574219 419.03125 75.351562 405.140625 58.355469 C 401.101562 53.386719 396.542969 48.679688 391.507812 44.320312 Z M 384.648438 332.398438 C 397.195312 331.570312 414.300781 310.78125 412.171875 308.511719 C 398.496094 308.644531 387.730469 310.128906 373.925781 306.855469 C 372.320312 306.464844 370.753906 306.03125 369.234375 305.507812 C 370.148438 307.03125 371.101562 308.558594 372.058594 310.128906 C 376.398438 317.230469 380.914062 324.550781 384.648438 332.398438 Z M 242.816406 334.316406 C 242.207031 332.265625 243.378906 330.128906 245.421875 329.519531 C 247.460938 328.910156 249.585938 330.085938 250.195312 332.136719 C 253.667969 343.988281 260.484375 355.320312 268.949219 364.867188 C 277.894531 374.972656 288.617188 382.949219 299.121094 387.351562 C 301.507812 388.355469 303.636719 389.007812 305.199219 389.097656 C 305.417969 389.097656 305.59375 389.097656 305.722656 389.097656 C 305.765625 388.441406 305.59375 387.570312 305.246094 386.351562 C 303.507812 380.207031 300.644531 369.746094 298.90625 359.460938 C 297.082031 348.652344 296.605469 338.019531 299.992188 332.265625 C 301.078125 330.433594 303.464844 329.824219 305.289062 330.914062 C 307.109375 332.003906 307.71875 334.402344 306.632812 336.234375 C 304.332031 340.109375 304.941406 348.914062 306.5 358.199219 C 308.152344 368 310.929688 378.246094 312.667969 384.257812 C 313.359375 386.65625 313.535156 388.617188 313.359375 390.273438 C 313.101562 392.582031 312.105469 394.238281 310.539062 395.371094 C 310.410156 395.460938 310.28125 395.546875 310.152344 395.632812 C 308.628906 396.589844 306.804688 396.984375 304.765625 396.851562 C 302.246094 396.722656 299.25 395.808594 296.128906 394.5 C 284.578125 389.660156 272.8125 380.945312 263.132812 370.007812 C 253.972656 359.675781 246.589844 347.347656 242.773438 334.316406 Z M 242.816406 334.316406 "/>
<path style=" stroke:none;fill-rule:nonzero;fill:rgb(24.313725%,32.941176%,41.960784%);fill-opacity:1;" d="M 361.421875 291.296875 C 363.808594 295.222656 369.191406 297.75 375.703125 299.320312 C 386.949219 302.019531 401.1875 301.714844 410.609375 300.972656 L 410.914062 300.929688 C 412.867188 300.753906 414.386719 300.667969 415.863281 300.972656 C 420.03125 301.890625 421.507812 304.285156 420.117188 310.648438 C 418.554688 317.796875 412.824219 325.988281 405.226562 331.875 C 400.105469 335.839844 394.109375 338.804688 387.902344 339.847656 C 394.503906 356.585938 396.804688 375.628906 386.90625 398.8125 C 367.195312 445.183594 324.390625 473.730469 277.199219 484.40625 C 251.105469 490.292969 223.667969 490.683594 198.097656 485.628906 C 172.394531 480.488281 148.519531 469.808594 129.636719 453.550781 C 103.367188 430.933594 86.871094 397.59375 88.738281 353.535156 C 83.050781 353.664062 77.625 353.402344 72.457031 352.878906 C 50.054688 350.4375 32.472656 341.941406 20.230469 329.214844 C 7.945312 316.445312 1.085938 299.578125 0.132812 280.488281 C -0.128906 275.523438 0.0429688 270.46875 0.609375 265.28125 C 1 261.53125 1.953125 258.523438 3.257812 256.519531 C 4.296875 254.910156 5.601562 253.820312 7.164062 253.253906 C 8.898438 252.640625 10.722656 252.730469 12.546875 253.601562 C 14.152344 254.382812 15.714844 255.824219 17.191406 257.914062 C 23.183594 266.589844 32.300781 268.332031 41.460938 270.117188 C 46.800781 271.164062 52.183594 272.164062 57.347656 274.519531 C 63.382812 277.222656 68.636719 281.011719 73.5 284.5 C 80.011719 289.207031 85.570312 293.214844 89.605469 291.996094 C 95.382812 290.253906 95.339844 282.800781 95.207031 272.996094 C 95.164062 266.632812 95.078125 259.484375 96.421875 252.03125 C 97.683594 245.015625 100.894531 237.476562 105.148438 229.9375 C 109.316406 222.617188 114.480469 215.203125 119.867188 208.320312 C 122.125 205.398438 124.511719 203.4375 126.8125 202.394531 C 129.027344 201.347656 131.238281 201.128906 133.28125 201.609375 C 135.40625 202.128906 137.1875 203.351562 138.621094 205.3125 C 139.921875 207.101562 140.878906 209.539062 141.269531 212.460938 C 142.703125 222.703125 145.828125 232.460938 148.867188 242.097656 C 157.984375 270.902344 166.753906 298.664062 135.363281 336.015625 C 139.621094 342.113281 146.609375 346.296875 154.597656 348.304688 C 161.5 350.046875 169.097656 350.132812 176.304688 348.433594 C 183.46875 346.734375 190.199219 343.292969 195.492188 337.84375 C 202.179688 331 206.605469 320.890625 206.605469 307.207031 C 206.605469 293.738281 200.875 274.695312 194.757812 254.210938 C 183.25 215.859375 170.226562 172.539062 188.589844 146 C 207.867188 118.148438 240.121094 101.238281 273.160156 83.894531 C 297.992188 70.863281 323.304688 57.570312 343.492188 39.3125 C 341.972656 35.824219 341.101562 31.988281 341.101562 27.980469 C 341.101562 12.550781 353.5625 0.0859375 368.886719 0.0859375 C 384.257812 0.0859375 396.671875 12.597656 396.671875 27.980469 C 396.671875 31.246094 396.109375 34.34375 395.109375 37.261719 C 401.058594 42.230469 406.355469 47.679688 411.042969 53.429688 C 425.890625 71.648438 434.488281 93.308594 436.875 115.839844 C 439.21875 138.285156 435.355469 161.644531 425.242188 183.347656 C 416.644531 201.78125 403.574219 218.996094 386.039062 233.425781 C 385.996094 233.46875 385.90625 233.511719 385.863281 233.597656 C 384.386719 234.773438 385.039062 234.25 382.347656 236.472656 C 376.53125 241.222656 370.839844 245.886719 365.15625 251.117188 C 353.652344 265.148438 355.257812 278.050781 361.464844 291.429688 Z M 278.285156 177.246094 C 280.886719 180.382812 282.496094 184.390625 282.496094 188.792969 C 282.496094 198.6875 274.507812 206.75 264.652344 206.75 C 254.796875 206.75 246.765625 198.730469 246.765625 188.792969 C 246.765625 179.121094 254.449219 171.1875 264 170.882812 C 263.132812 172.148438 262.652344 173.714844 262.652344 175.371094 C 262.652344 179.773438 266.214844 183.347656 270.601562 183.347656 C 274.332031 183.347656 277.460938 180.777344 278.328125 177.289062 Z M 391.375 44.191406 C 386.34375 51.207031 378.136719 55.785156 368.84375 55.785156 C 360.335938 55.785156 352.695312 51.949219 347.617188 45.890625 C 326.949219 64.28125 301.597656 77.617188 276.675781 90.691406 C 244.507812 107.558594 213.121094 124.035156 194.886719 150.355469 C 178.648438 173.800781 191.0625 215.25 202.09375 251.902344 C 208.433594 272.953125 214.289062 292.519531 214.289062 307.117188 C 214.289062 323.070312 208.996094 334.96875 200.964844 343.203125 C 194.582031 349.742188 186.503906 353.882812 178.042969 355.886719 C 169.617188 357.890625 160.761719 357.761719 152.6875 355.714844 C 141.746094 352.964844 132.242188 346.691406 127.160156 337.363281 C 126.378906 335.882812 126.59375 334.140625 127.636719 332.960938 C 158.375 297.792969 150.039062 271.554688 141.445312 244.320312 C 138.273438 234.335938 135.0625 224.183594 133.539062 213.417969 C 133.324219 211.761719 132.890625 210.542969 132.328125 209.757812 C 132.023438 209.367188 131.71875 209.105469 131.457031 209.0625 C 131.109375 208.972656 130.632812 209.0625 129.984375 209.367188 C 128.765625 209.933594 127.378906 211.152344 125.898438 213.027344 C 120.777344 219.648438 115.785156 226.710938 111.835938 233.726562 C 107.96875 240.527344 105.105469 247.238281 104.019531 253.339844 C 102.804688 260.226562 102.847656 266.9375 102.890625 272.910156 C 103.019531 285.984375 103.105469 295.960938 91.777344 299.40625 C 84.136719 301.714844 77.105469 296.660156 68.941406 290.777344 C 64.425781 287.507812 59.476562 283.976562 54.179688 281.582031 C 49.882812 279.664062 44.933594 278.703125 39.984375 277.746094 C 29.304688 275.695312 18.625 273.648438 10.851562 262.359375 C 10.375 261.707031 9.988281 261.226562 9.640625 260.921875 C 9.03125 261.96875 8.550781 263.710938 8.292969 266.109375 C 7.773438 270.902344 7.640625 275.609375 7.859375 280.140625 C 8.726562 297.355469 14.804688 312.523438 25.789062 323.898438 C 36.816406 335.316406 52.746094 342.988281 73.324219 345.210938 C 79.40625 345.863281 85.832031 346.035156 92.691406 345.6875 C 94.816406 345.601562 96.640625 347.257812 96.726562 349.394531 C 96.726562 349.523438 96.726562 349.699219 96.726562 349.828125 C 93.773438 393.324219 109.359375 425.921875 134.714844 447.757812 C 152.515625 463.140625 175.175781 473.207031 199.660156 478.089844 C 224.234375 482.972656 250.585938 482.578125 275.59375 476.957031 C 320.523438 466.800781 361.246094 439.738281 379.914062 395.894531 C 394.503906 361.59375 379.136719 336.492188 365.546875 314.3125 C 351.351562 291.125 338.886719 270.816406 359.378906 245.972656 C 359.511719 245.796875 359.683594 245.625 359.859375 245.492188 C 363.851562 241.789062 367.890625 238.390625 371.972656 234.992188 C 368.800781 234.554688 365.851562 233.640625 363.160156 232.375 C 357.558594 229.71875 353.042969 225.492188 349.917969 220.566406 C 346.792969 215.597656 345.054688 209.890625 345.011719 204.265625 C 344.96875 198.558594 346.660156 192.976562 350.4375 188.359375 C 351.785156 186.703125 354.214844 186.484375 355.863281 187.835938 C 357.511719 189.1875 357.730469 191.628906 356.386719 193.28125 C 353.824219 196.421875 352.695312 200.257812 352.738281 204.222656 C 352.78125 208.363281 354.085938 212.632812 356.472656 216.425781 C 358.859375 220.21875 362.246094 223.398438 366.457031 225.359375 C 370.753906 227.410156 375.964844 228.148438 381.828125 226.929688 C 398.191406 213.332031 410.347656 197.25 418.335938 180.078125 C 427.847656 159.683594 431.492188 137.761719 429.277344 116.621094 C 427.0625 95.574219 419.03125 75.351562 405.140625 58.355469 C 401.101562 53.386719 396.542969 48.679688 391.507812 44.320312 Z M 384.648438 332.398438 C 397.195312 331.570312 414.300781 310.78125 412.171875 308.511719 C 398.496094 308.644531 387.730469 310.128906 373.925781 306.855469 C 372.320312 306.464844 370.753906 306.03125 369.234375 305.507812 C 370.148438 307.03125 371.101562 308.558594 372.058594 310.128906 C 376.398438 317.230469 380.914062 324.550781 384.648438 332.398438 Z M 242.816406 334.316406 C 242.207031 332.265625 243.378906 330.128906 245.421875 329.519531 C 247.460938 328.910156 249.585938 330.085938 250.195312 332.136719 C 253.667969 343.988281 260.484375 355.320312 268.949219 364.867188 C 277.894531 374.972656 288.617188 382.949219 299.121094 387.351562 C 301.507812 388.355469 303.636719 389.007812 305.199219 389.097656 C 305.417969 389.097656 305.59375 389.097656 305.722656 389.097656 C 305.765625 388.441406 305.59375 387.570312 305.246094 386.351562 C 303.507812 380.207031 300.644531 369.746094 298.90625 359.460938 C 297.082031 348.652344 296.605469 338.019531 299.992188 332.265625 C 301.078125 330.433594 303.464844 329.824219 305.289062 330.914062 C 307.109375 332.003906 307.71875 334.402344 306.632812 336.234375 C 304.332031 340.109375 304.941406 348.914062 306.5 358.199219 C 308.152344 368 310.929688 378.246094 312.667969 384.257812 C 313.359375 386.65625 313.535156 388.617188 313.359375 390.273438 C 313.101562 392.582031 312.105469 394.238281 310.539062 395.371094 C 310.410156 395.460938 310.28125 395.546875 310.152344 395.632812 C 308.628906 396.589844 306.804688 396.984375 304.765625 396.851562 C 302.246094 396.722656 299.25 395.808594 296.128906 394.5 C 284.578125 389.660156 272.8125 380.945312 263.132812 370.007812 C 253.972656 359.675781 246.589844 347.347656 242.773438 334.316406 Z M 242.816406 334.316406 "/>
<path style=" stroke:none;fill-rule:evenodd;fill:rgb(41.568627%,81.176471%,78.431373%);fill-opacity:1;" d="M 365.460938 314.179688 C 351.261719 290.992188 338.800781 270.6875 359.292969 245.84375 C 359.421875 245.667969 359.597656 245.492188 359.769531 245.363281 C 363.765625 241.660156 367.804688 238.261719 371.882812 234.859375 C 368.714844 234.425781 365.761719 233.511719 363.070312 232.246094 C 357.46875 229.585938 352.953125 225.359375 349.828125 220.4375 C 346.703125 215.46875 344.96875 209.757812 344.925781 204.132812 C 344.882812 198.429688 346.574219 192.847656 350.351562 188.226562 C 351.699219 186.570312 354.128906 186.355469 355.777344 187.707031 C 357.425781 189.054688 357.644531 191.496094 356.300781 193.152344 C 353.738281 196.292969 352.605469 200.125 352.652344 204.089844 C 352.695312 208.230469 354 212.503906 356.386719 216.296875 C 358.773438 220.085938 362.160156 223.269531 366.371094 225.230469 C 370.667969 227.277344 375.878906 228.019531 381.742188 226.800781 C 398.105469 213.199219 410.261719 197.117188 418.25 179.945312 C 427.757812 159.550781 431.402344 137.628906 429.191406 116.492188 C 426.976562 95.445312 418.945312 75.222656 405.054688 58.226562 C 401.011719 53.253906 396.457031 48.550781 391.421875 44.191406 C 386.386719 51.207031 378.179688 55.785156 368.886719 55.785156 C 360.378906 55.785156 352.738281 51.949219 347.660156 45.890625 C 326.992188 64.28125 301.640625 77.617188 276.71875 90.691406 C 244.550781 107.558594 213.164062 124.035156 194.929688 150.355469 C 178.691406 173.800781 191.109375 215.25 202.136719 251.902344 C 208.476562 272.953125 214.335938 292.519531 214.335938 307.117188 C 214.335938 323.070312 209.039062 334.96875 201.007812 343.203125 C 194.625 349.742188 186.550781 353.882812 178.085938 355.886719 C 169.660156 357.890625 160.804688 357.761719 152.730469 355.714844 C 141.789062 352.964844 132.285156 346.691406 127.203125 337.363281 C 126.421875 335.882812 126.636719 334.140625 127.683594 332.960938 C 158.417969 297.792969 150.082031 271.554688 141.488281 244.320312 C 138.316406 234.335938 135.105469 224.183594 133.585938 213.417969 C 133.367188 211.761719 132.933594 210.542969 132.371094 209.757812 C 132.066406 209.367188 131.761719 209.105469 131.5 209.0625 C 131.152344 208.972656 130.675781 209.0625 130.027344 209.367188 C 128.808594 209.933594 127.421875 211.152344 125.945312 213.027344 C 120.824219 219.648438 115.828125 226.710938 111.878906 233.726562 C 108.011719 240.527344 105.148438 247.238281 104.0625 253.339844 C 102.847656 260.226562 102.890625 266.9375 102.933594 272.910156 C 103.0625 285.984375 103.152344 295.960938 91.820312 299.40625 C 84.179688 301.714844 77.148438 296.660156 68.984375 290.777344 C 64.46875 287.507812 59.519531 283.976562 54.222656 281.582031 C 49.925781 279.664062 44.976562 278.703125 40.027344 277.746094 C 29.347656 275.695312 18.667969 273.648438 10.894531 262.359375 C 10.417969 261.707031 10.03125 261.226562 9.683594 260.921875 C 9.074219 261.96875 8.59375 263.710938 8.335938 266.109375 C 7.816406 270.902344 7.683594 275.609375 7.902344 280.140625 C 8.769531 297.355469 14.847656 312.523438 25.832031 323.898438 C 36.859375 335.316406 52.792969 342.988281 73.367188 345.210938 C 79.449219 345.863281 85.875 346.035156 92.734375 345.6875 C 94.859375 345.601562 96.683594 347.257812 96.769531 349.394531 C 96.769531 349.523438 96.769531 349.699219 96.769531 349.828125 C 93.816406 393.324219 109.402344 425.921875 134.757812 447.757812 C 152.558594 463.140625 175.21875 473.207031 199.703125 478.089844 C 224.277344 482.972656 250.628906 482.578125 275.636719 476.957031 C 320.566406 466.800781 361.292969 439.738281 379.957031 395.894531 C 394.546875 361.59375 379.179688 336.492188 365.589844 314.3125 Z M 282.496094 188.792969 C 282.496094 198.6875 274.507812 206.75 264.652344 206.75 C 254.796875 206.75 246.765625 198.730469 246.765625 188.792969 C 246.765625 179.121094 254.449219 171.1875 264 170.882812 C 263.132812 172.148438 262.652344 173.714844 262.652344 175.371094 C 262.652344 179.773438 266.214844 183.347656 270.601562 183.347656 C 274.332031 183.347656 277.460938 180.777344 278.328125 177.289062 C 280.929688 180.425781 282.539062 184.4375 282.539062 188.835938 Z M 242.816406 334.359375 C 242.207031 332.308594 243.378906 330.175781 245.421875 329.5625 C 247.460938 328.953125 249.585938 330.128906 250.195312 332.179688 C 253.667969 344.03125 260.484375 355.363281 268.949219 364.910156 C 277.894531 375.019531 288.617188 382.996094 299.121094 387.394531 C 301.507812 388.398438 303.636719 389.054688 305.199219 389.140625 L 305.722656 389.140625 C 305.765625 388.484375 305.59375 387.613281 305.246094 386.394531 C 303.507812 380.25 300.644531 369.789062 298.90625 359.503906 C 297.082031 348.695312 296.605469 338.0625 299.992188 332.308594 C 301.078125 330.480469 303.464844 329.871094 305.289062 330.957031 C 307.109375 332.046875 307.71875 334.445312 306.632812 336.277344 C 304.332031 340.152344 304.941406 348.957031 306.5 358.242188 C 308.152344 368.046875 310.929688 378.289062 312.667969 384.304688 C 313.359375 386.699219 313.535156 388.660156 313.359375 390.316406 C 313.101562 392.625 312.105469 394.28125 310.539062 395.417969 C 310.410156 395.503906 310.28125 395.589844 310.152344 395.675781 C 308.628906 396.632812 306.804688 397.027344 304.765625 396.894531 C 302.246094 396.765625 299.25 395.851562 296.128906 394.542969 C 284.578125 389.707031 272.8125 380.988281 263.132812 370.050781 C 253.972656 359.722656 246.589844 347.390625 242.773438 334.359375 Z M 242.816406 334.359375 "/>
<path style=" stroke:none;fill-rule:evenodd;fill:rgb(41.568627%,81.176471%,78.431373%);fill-opacity:1;" d="M 365.460938 314.179688 C 351.261719 290.992188 338.800781 270.6875 359.292969 245.84375 C 359.421875 245.667969 359.597656 245.492188 359.769531 245.363281 C 363.765625 241.660156 367.804688 238.261719 371.882812 234.859375 C 368.714844 234.425781 365.761719 233.511719 363.070312 232.246094 C 357.46875 229.585938 352.953125 225.359375 349.828125 220.4375 C 346.703125 215.46875 344.96875 209.757812 344.925781 204.132812 C 344.882812 198.429688 346.574219 192.847656 350.351562 188.226562 C 351.699219 186.570312 354.128906 186.355469 355.777344 187.707031 C 357.425781 189.054688 357.644531 191.496094 356.300781 193.152344 C 353.738281 196.292969 352.605469 200.125 352.652344 204.089844 C 352.695312 208.230469 354 212.503906 356.386719 216.296875 C 358.773438 220.085938 362.160156 223.269531 366.371094 225.230469 C 370.667969 227.277344 375.878906 228.019531 381.742188 226.800781 C 398.105469 213.199219 410.261719 197.117188 418.25 179.945312 C 427.757812 159.550781 431.402344 137.628906 429.191406 116.492188 C 426.976562 95.445312 418.945312 75.222656 405.054688 58.226562 C 401.011719 53.253906 396.457031 48.550781 391.421875 44.191406 C 386.386719 51.207031 378.179688 55.785156 368.886719 55.785156 C 360.378906 55.785156 352.738281 51.949219 347.660156 45.890625 C 326.992188 64.28125 301.640625 77.617188 276.71875 90.691406 C 244.550781 107.558594 213.164062 124.035156 194.929688 150.355469 C 178.691406 173.800781 191.109375 215.25 202.136719 251.902344 C 208.476562 272.953125 214.335938 292.519531 214.335938 307.117188 C 214.335938 323.070312 209.039062 334.96875 201.007812 343.203125 C 194.625 349.742188 186.550781 353.882812 178.085938 355.886719 C 169.660156 357.890625 160.804688 357.761719 152.730469 355.714844 C 141.789062 352.964844 132.285156 346.691406 127.203125 337.363281 C 126.421875 335.882812 126.636719 334.140625 127.683594 332.960938 C 158.417969 297.792969 150.082031 271.554688 141.488281 244.320312 C 138.316406 234.335938 135.105469 224.183594 133.585938 213.417969 C 133.367188 211.761719 132.933594 210.542969 132.371094 209.757812 C 132.066406 209.367188 131.761719 209.105469 131.5 209.0625 C 131.152344 208.972656 130.675781 209.0625 130.027344 209.367188 C 128.808594 209.933594 127.421875 211.152344 125.945312 213.027344 C 120.824219 219.648438 115.828125 226.710938 111.878906 233.726562 C 108.011719 240.527344 105.148438 247.238281 104.0625 253.339844 C 102.847656 260.226562 102.890625 266.9375 102.933594 272.910156 C 103.0625 285.984375 103.152344 295.960938 91.820312 299.40625 C 84.179688 301.714844 77.148438 296.660156 68.984375 290.777344 C 64.46875 287.507812 59.519531 283.976562 54.222656 281.582031 C 49.925781 279.664062 44.976562 278.703125 40.027344 277.746094 C 29.347656 275.695312 18.667969 273.648438 10.894531 262.359375 C 10.417969 261.707031 10.03125 261.226562 9.683594 260.921875 C 9.074219 261.96875 8.59375 263.710938 8.335938 266.109375 C 7.816406 270.902344 7.683594 275.609375 7.902344 280.140625 C 8.769531 297.355469 14.847656 312.523438 25.832031 323.898438 C 36.859375 335.316406 52.792969 342.988281 73.367188 345.210938 C 79.449219 345.863281 85.875 346.035156 92.734375 345.6875 C 94.859375 345.601562 96.683594 347.257812 96.769531 349.394531 C 96.769531 349.523438 96.769531 349.699219 96.769531 349.828125 C 93.816406 393.324219 109.402344 425.921875 134.757812 447.757812 C 152.558594 463.140625 175.21875 473.207031 199.703125 478.089844 C 224.277344 482.972656 250.628906 482.578125 275.636719 476.957031 C 320.566406 466.800781 361.292969 439.738281 379.957031 395.894531 C 394.546875 361.59375 379.179688 336.492188 365.589844 314.3125 Z M 282.496094 188.792969 C 282.496094 198.6875 274.507812 206.75 264.652344 206.75 C 254.796875 206.75 246.765625 198.730469 246.765625 188.792969 C 246.765625 179.121094 254.449219 171.1875 264 170.882812 C 263.132812 172.148438 262.652344 173.714844 262.652344 175.371094 C 262.652344 179.773438 266.214844 183.347656 270.601562 183.347656 C 274.332031 183.347656 277.460938 180.777344 278.328125 177.289062 C 280.929688 180.425781 282.539062 184.4375 282.539062 188.835938 Z M 242.816406 334.359375 C 242.207031 332.308594 243.378906 330.175781 245.421875 329.5625 C 247.460938 328.953125 249.585938 330.128906 250.195312 332.179688 C 253.667969 344.03125 260.484375 355.363281 268.949219 364.910156 C 277.894531 375.019531 288.617188 382.996094 299.121094 387.394531 C 301.507812 388.398438 303.636719 389.054688 305.199219 389.140625 L 305.722656 389.140625 C 305.765625 388.484375 305.59375 387.613281 305.246094 386.394531 C 303.507812 380.25 300.644531 369.789062 298.90625 359.503906 C 297.082031 348.695312 296.605469 338.0625 299.992188 332.308594 C 301.078125 330.480469 303.464844 329.871094 305.289062 330.957031 C 307.109375 332.046875 307.71875 334.445312 306.632812 336.277344 C 304.332031 340.152344 304.941406 348.957031 306.5 358.242188 C 308.152344 368.046875 310.929688 378.289062 312.667969 384.304688 C 313.359375 386.699219 313.535156 388.660156 313.359375 390.316406 C 313.101562 392.625 312.105469 394.28125 310.539062 395.417969 C 310.410156 395.503906 310.28125 395.589844 310.152344 395.675781 C 308.628906 396.632812 306.804688 397.027344 304.765625 396.894531 C 302.246094 396.765625 299.25 395.851562 296.128906 394.542969 C 284.578125 389.707031 272.8125 380.988281 263.132812 370.050781 C 253.972656 359.722656 246.589844 347.390625 242.773438 334.359375 Z M 242.816406 334.359375 "/>
<path style=" stroke:none;fill-rule:evenodd;fill:rgb(96.078431%,100%,85.098039%);fill-opacity:1;" d="M 349.351562 280.578125 C 317.574219 307.90625 399.886719 443.835938 250.976562 480.660156 C 259.226562 479.917969 267.429688 478.65625 275.507812 476.824219 C 320.4375 466.667969 361.160156 439.605469 379.828125 395.765625 C 394.414062 361.464844 379.046875 336.363281 365.460938 314.179688 C 358.339844 302.542969 351.65625 291.644531 349.351562 280.535156 Z M 349.351562 280.578125 "/>
<path style=" stroke:none;fill-rule:evenodd;fill:rgb(96.078431%,100%,85.098039%);fill-opacity:1;" d="M 349.351562 280.578125 C 317.574219 307.90625 399.886719 443.835938 250.976562 480.660156 C 259.226562 479.917969 267.429688 478.65625 275.507812 476.824219 C 320.4375 466.667969 361.160156 439.605469 379.828125 395.765625 C 394.414062 361.464844 379.046875 336.363281 365.460938 314.179688 C 358.339844 302.542969 351.65625 291.644531 349.351562 280.535156 Z M 349.351562 280.578125 "/>
<path style=" stroke:none;fill-rule:evenodd;fill:rgb(96.078431%,100%,85.098039%);fill-opacity:1;" d="M 92.601562 345.601562 C 84.222656 313.003906 31 324.679688 8.25 285.238281 C 9.988281 300.320312 15.890625 313.566406 25.746094 323.765625 C 36.773438 335.183594 52.703125 342.855469 73.28125 345.078125 C 79.363281 345.730469 85.785156 345.90625 92.644531 345.558594 Z M 92.601562 345.601562 "/>
<path style=" stroke:none;fill-rule:evenodd;fill:rgb(96.078431%,100%,85.098039%);fill-opacity:1;" d="M 92.601562 345.601562 C 84.222656 313.003906 31 324.679688 8.25 285.238281 C 9.988281 300.320312 15.890625 313.566406 25.746094 323.765625 C 36.773438 335.183594 52.703125 342.855469 73.28125 345.078125 C 79.363281 345.730469 85.785156 345.90625 92.644531 345.558594 Z M 92.601562 345.601562 "/>
<path style=" stroke:none;fill-rule:evenodd;fill:rgb(25.882353%,67.058824%,67.843137%);fill-opacity:1;" d="M 133.105469 211.503906 C 116.351562 263.011719 157.246094 284.371094 127.59375 332.960938 C 158.332031 297.792969 149.996094 271.554688 141.402344 244.320312 C 138.230469 234.335938 135.019531 224.183594 133.496094 213.417969 C 133.410156 212.71875 133.238281 212.066406 133.105469 211.503906 Z M 133.105469 211.503906 "/>
<path style=" stroke:none;fill-rule:evenodd;fill:rgb(25.882353%,67.058824%,67.843137%);fill-opacity:1;" d="M 133.105469 211.503906 C 116.351562 263.011719 157.246094 284.371094 127.59375 332.960938 C 158.332031 297.792969 149.996094 271.554688 141.402344 244.320312 C 138.230469 234.335938 135.019531 224.183594 133.496094 213.417969 C 133.410156 212.71875 133.238281 212.066406 133.105469 211.503906 Z M 133.105469 211.503906 "/>
<path style=" stroke:none;fill-rule:evenodd;fill:rgb(96.078431%,100%,85.098039%);fill-opacity:1;" d="M 202.046875 251.902344 C 174.738281 131.484375 286.878906 120.242188 344.230469 48.765625 C 324.214844 65.722656 300.207031 78.316406 276.632812 90.648438 C 244.464844 107.515625 213.078125 123.992188 194.84375 150.3125 C 178.605469 173.757812 191.019531 215.203125 202.046875 251.855469 Z M 202.046875 251.902344 "/>
<path style=" stroke:none;fill-rule:evenodd;fill:rgb(96.078431%,100%,85.098039%);fill-opacity:1;" d="M 202.046875 251.902344 C 174.738281 131.484375 286.878906 120.242188 344.230469 48.765625 C 324.214844 65.722656 300.207031 78.316406 276.632812 90.648438 C 244.464844 107.515625 213.078125 123.992188 194.84375 150.3125 C 178.605469 173.757812 191.019531 215.203125 202.046875 251.855469 Z M 202.046875 251.902344 "/>
<path style=" stroke:none;fill-rule:evenodd;fill:rgb(41.568627%,81.176471%,78.431373%);fill-opacity:1;" d="M 412.128906 308.511719 C 398.453125 308.644531 387.6875 310.128906 373.878906 306.855469 C 372.277344 306.464844 370.710938 306.03125 369.191406 305.507812 C 370.105469 307.03125 371.058594 308.558594 372.015625 310.128906 C 376.355469 317.230469 380.871094 324.550781 384.605469 332.398438 C 397.152344 331.570312 414.257812 310.78125 412.128906 308.511719 Z M 412.128906 308.511719 "/>
<path style=" stroke:none;fill-rule:evenodd;fill:rgb(41.568627%,81.176471%,78.431373%);fill-opacity:1;" d="M 412.128906 308.511719 C 398.453125 308.644531 387.6875 310.128906 373.878906 306.855469 C 372.277344 306.464844 370.710938 306.03125 369.191406 305.507812 C 370.105469 307.03125 371.058594 308.558594 372.015625 310.128906 C 376.355469 317.230469 380.871094 324.550781 384.605469 332.398438 C 397.152344 331.570312 414.257812 310.78125 412.128906 308.511719 Z M 412.128906 308.511719 "/>
<path style=" stroke:none;fill-rule:evenodd;fill:rgb(25.882353%,67.058824%,67.843137%);fill-opacity:1;" d="M 398.886719 325.511719 C 391.59375 321.285156 385.820312 315.3125 382.476562 308.382812 C 379.742188 308.035156 376.878906 307.554688 373.925781 306.855469 C 372.320312 306.464844 370.753906 306.03125 369.234375 305.507812 C 370.148438 307.03125 371.101562 308.558594 372.058594 310.128906 C 376.398438 317.230469 380.914062 324.550781 384.648438 332.398438 C 389.164062 332.09375 394.285156 329.171875 398.886719 325.511719 Z M 398.886719 325.511719 "/>
<path style=" stroke:none;fill-rule:evenodd;fill:rgb(25.882353%,67.058824%,67.843137%);fill-opacity:1;" d="M 398.886719 325.511719 C 391.59375 321.285156 385.820312 315.3125 382.476562 308.382812 C 379.742188 308.035156 376.878906 307.554688 373.925781 306.855469 C 372.320312 306.464844 370.753906 306.03125 369.234375 305.507812 C 370.148438 307.03125 371.101562 308.558594 372.058594 310.128906 C 376.398438 317.230469 380.914062 324.550781 384.648438 332.398438 C 389.164062 332.09375 394.285156 329.171875 398.886719 325.511719 Z M 398.886719 325.511719 "/>
<path style=" stroke:none;fill-rule:evenodd;fill:rgb(25.882353%,67.058824%,67.843137%);fill-opacity:1;" d="M 244.679688 339.980469 C 264.433594 399.773438 306.675781 416.769531 317.660156 403.738281 C 321.613281 399.074219 315.230469 392.101562 311.148438 378.636719 C 311.710938 380.726562 312.234375 382.644531 312.710938 384.214844 C 313.40625 386.613281 313.578125 388.574219 313.40625 390.226562 C 313.144531 392.539062 312.148438 394.195312 310.582031 395.328125 C 310.453125 395.417969 310.324219 395.503906 310.195312 395.589844 C 308.671875 396.546875 306.851562 396.941406 304.808594 396.808594 C 302.292969 396.679688 299.296875 395.765625 296.171875 394.457031 C 284.625 389.617188 272.859375 380.902344 263.175781 369.964844 C 255.359375 361.160156 248.804688 350.832031 244.679688 339.890625 Z M 244.679688 339.980469 "/>
<path style=" stroke:none;fill-rule:evenodd;fill:rgb(25.882353%,67.058824%,67.843137%);fill-opacity:1;" d="M 244.679688 339.980469 C 264.433594 399.773438 306.675781 416.769531 317.660156 403.738281 C 321.613281 399.074219 315.230469 392.101562 311.148438 378.636719 C 311.710938 380.726562 312.234375 382.644531 312.710938 384.214844 C 313.40625 386.613281 313.578125 388.574219 313.40625 390.226562 C 313.144531 392.539062 312.148438 394.195312 310.582031 395.328125 C 310.453125 395.417969 310.324219 395.503906 310.195312 395.589844 C 308.671875 396.546875 306.851562 396.941406 304.808594 396.808594 C 302.292969 396.679688 299.296875 395.765625 296.171875 394.457031 C 284.625 389.617188 272.859375 380.902344 263.175781 369.964844 C 255.359375 361.160156 248.804688 350.832031 244.679688 339.890625 Z M 244.679688 339.980469 "/>
<path style=" stroke:none;fill-rule:evenodd;fill:rgb(25.882353%,67.058824%,67.843137%);fill-opacity:1;" d="M 391.375 44.234375 C 425.890625 99.058594 428.410156 179.859375 381.695312 226.84375 C 398.0625 213.242188 410.21875 197.164062 418.207031 179.992188 C 427.714844 159.597656 431.359375 137.675781 429.148438 116.535156 C 426.933594 95.488281 418.902344 75.265625 405.007812 58.269531 C 400.96875 53.300781 396.410156 48.59375 391.375 44.234375 Z M 391.375 44.234375 "/>
<path style=" stroke:none;fill-rule:evenodd;fill:rgb(25.882353%,67.058824%,67.843137%);fill-opacity:1;" d="M 391.375 44.234375 C 425.890625 99.058594 428.410156 179.859375 381.695312 226.84375 C 398.0625 213.242188 410.21875 197.164062 418.207031 179.992188 C 427.714844 159.597656 431.359375 137.675781 429.148438 116.535156 C 426.933594 95.488281 418.902344 75.265625 405.007812 58.269531 C 400.96875 53.300781 396.410156 48.59375 391.375 44.234375 Z M 391.375 44.234375 "/>
<path style=" stroke:none;fill-rule:evenodd;fill:rgb(25.882353%,67.058824%,67.843137%);fill-opacity:1;" d="M 300.902344 459.914062 C 282.148438 465.277344 261.394531 468.285156 239.515625 468.285156 C 188.199219 468.285156 142.917969 451.851562 115.828125 426.75 C 121.210938 434.550781 127.550781 441.523438 134.628906 447.625 C 152.425781 463.011719 175.089844 473.078125 199.574219 477.957031 C 216.242188 481.269531 233.699219 482.183594 250.976562 480.660156 C 271.855469 475.515625 288.179688 468.414062 300.902344 459.914062 Z M 300.902344 459.914062 "/>
<path style=" stroke:none;fill-rule:evenodd;fill:rgb(25.882353%,67.058824%,67.843137%);fill-opacity:1;" d="M 300.902344 459.914062 C 282.148438 465.277344 261.394531 468.285156 239.515625 468.285156 C 188.199219 468.285156 142.917969 451.851562 115.828125 426.75 C 121.210938 434.550781 127.550781 441.523438 134.628906 447.625 C 152.425781 463.011719 175.089844 473.078125 199.574219 477.957031 C 216.242188 481.269531 233.699219 482.183594 250.976562 480.660156 C 271.855469 475.515625 288.179688 468.414062 300.902344 459.914062 Z M 300.902344 459.914062 "/>
<path style=" stroke:none;fill-rule:evenodd;fill:rgb(81.960784%,87.843137%,65.098039%);fill-opacity:1;" d="M 300.902344 459.914062 C 288.179688 468.414062 271.855469 475.515625 250.976562 480.660156 C 259.226562 479.917969 267.429688 478.65625 275.507812 476.824219 C 305.417969 470.070312 333.464844 455.816406 354.386719 434.113281 C 339.933594 445.097656 321.65625 453.988281 300.902344 459.914062 Z M 300.902344 459.914062 "/>
<path style=" stroke:none;fill-rule:evenodd;fill:rgb(81.960784%,87.843137%,65.098039%);fill-opacity:1;" d="M 300.902344 459.914062 C 288.179688 468.414062 271.855469 475.515625 250.976562 480.660156 C 259.226562 479.917969 267.429688 478.65625 275.507812 476.824219 C 305.417969 470.070312 333.464844 455.816406 354.386719 434.113281 C 339.933594 445.097656 321.65625 453.988281 300.902344 459.914062 Z M 300.902344 459.914062 "/>
<path style=" stroke:none;fill-rule:evenodd;fill:rgb(92.941176%,63.137255%,63.137255%);fill-opacity:1;" d="M 309.671875 230.152344 C 309.671875 238.121094 303.238281 244.582031 295.300781 244.582031 C 287.363281 244.582031 280.929688 238.121094 280.929688 230.152344 C 280.929688 222.1875 287.363281 215.730469 295.300781 215.730469 C 303.238281 215.730469 309.671875 222.1875 309.671875 230.152344 Z M 309.671875 230.152344 "/>
<path style=" stroke:none;fill-rule:evenodd;fill:rgb(92.941176%,63.137255%,63.137255%);fill-opacity:1;" d="M 309.671875 230.152344 C 309.671875 238.121094 303.238281 244.582031 295.300781 244.582031 C 287.363281 244.582031 280.929688 238.121094 280.929688 230.152344 C 280.929688 222.1875 287.363281 215.730469 295.300781 215.730469 C 303.238281 215.730469 309.671875 222.1875 309.671875 230.152344 Z M 309.671875 230.152344 "/>
</g>
</g></svg>